<svg width="19" height="20" viewBox="0 0 19 20" fill="none" xmlns="http://www.w3.org/2000/svg">
<path d="M13 8.00001C12.2483 8.00001 11.6609 8.74065 11 9.00001V6.00001L14 3.00001C14.4791 2.54613 14.4791 1.47822 14 1.00001C13.5209 0.521813 12.4791 0.525055 12 1.00001L9 5.00001L1 3.00001L0 4.00001L6 7.00001L3 10H1L0 11L3 12L4 15L5 14V12L8 9.00001L9 11C8.31022 11.8317 7.13022 12.9354 7 14C6.86978 15.0646 7.53038 16.0318 8 17C8.46962 17.9682 9.07581 18.4277 10 19C10.9242 19.5723 11.9071 20.0007 13 20C16.197 20 19 17.1367 19 14C19 10.8633 16.197 8.00001 13 8.00001ZM13 18C10.72 18 9 16.237 9 14C9 11.763 10.72 10 13 10C15.28 10 17 11.763 17 14C17 16.237 15.28 18 13 18ZM14 14V11H12V15L15 17L16 16L14 14Z" fill="#797979"/>
</svg>
