<svg width="20" height="21" viewBox="0 0 20 21" fill="none" xmlns="http://www.w3.org/2000/svg">
<path d="M7.91667 8.83333C9.5275 8.83333 10.8333 7.5275 10.8333 5.91667C10.8333 4.30584 9.5275 3 7.91667 3C6.30584 3 5 4.30584 5 5.91667C5 7.5275 6.30584 8.83333 7.91667 8.83333Z" stroke="#797979" stroke-width="1.5" stroke-linecap="round" stroke-linejoin="round"/>
<path d="M12.0834 18C13.6942 18 15.0001 16.6942 15.0001 15.0833C15.0001 13.4725 13.6942 12.1667 12.0834 12.1667C10.4726 12.1667 9.16675 13.4725 9.16675 15.0833C9.16675 16.6942 10.4726 18 12.0834 18Z" stroke="#797979" stroke-width="1.5" stroke-linecap="round" stroke-linejoin="round"/>
<path d="M17.5 15.0833H15" stroke="#797979" stroke-width="1.5" stroke-linecap="round" stroke-linejoin="round"/>
<path d="M9.16667 15.0833H2.5" stroke="#797979" stroke-width="1.5" stroke-linecap="round" stroke-linejoin="round"/>
<path d="M17.4999 5.91666H10.8333" stroke="#797979" stroke-width="1.5" stroke-linecap="round" stroke-linejoin="round"/>
<path d="M5 5.91666H2.5" stroke="#797979" stroke-width="1.5" stroke-linecap="round" stroke-linejoin="round"/>
</svg>
