<svg width="17" height="17" viewBox="0 0 17 17" fill="none" xmlns="http://www.w3.org/2000/svg">
<path fill-rule="evenodd" clip-rule="evenodd" d="M13 1.00005C13.4379 1.00005 13.6903 0.691771 14 1.00005C14.3097 1.30833 14 2.56408 14 3.00005V4.00005H15C15.219 4.00005 15.8451 3.84591 16 4.00005C16 3.78206 16.1548 4.15419 16 4.00005C16 4.21804 16.1548 4.84591 16 5.00005C15.8451 5.15419 15.219 5.00005 15 5.00005V14C15.219 14 15.8451 14.8459 16 15C16 14.7821 16.1548 15.1542 16 15C16 15.218 16.1548 15.8459 16 16C15.8451 16.1542 15.219 16 15 16H9.99997V12C9.99997 11.6731 9.23224 11.2313 8.99997 11C8.7677 10.7688 9.32845 11 8.99997 11C8.67149 11 8.23224 10.7688 7.99997 11C7.7677 11.2313 6.99997 11.6731 6.99997 12V16H1.99997C1.78099 16 1.15482 16.1542 0.999973 16C0.845127 15.8459 0.999973 15.218 0.999973 15C0.845127 15.1542 0.999973 14.7821 0.999973 15C1.15482 14.8459 1.78099 14 1.99997 14V5.00005C1.78099 5.00005 1.15482 5.15419 0.999973 5.00005C0.845127 4.84591 0.999973 4.21804 0.999973 4.00005C0.845127 4.15419 0.999973 3.78206 0.999973 4.00005C1.15482 3.84591 1.78099 4.00005 1.99997 4.00005H2.99997V3.00005C2.99997 2.56408 2.69028 1.30833 2.99997 1.00005C3.30967 0.691771 3.562 1.00005 3.99997 1.00005H13ZM4.99997 9.00005C4.78099 9.00005 5.15482 9.84591 4.99997 10C4.84513 10.1542 3.99997 9.78206 3.99997 10V11C3.99997 11.218 4.84513 11.8459 4.99997 12C4.78099 12 5.15482 12.1542 4.99997 12C5.21896 12 5.84513 12.1542 5.99997 12C6.15482 11.8459 5.99997 11.218 5.99997 11V10C5.99997 9.78206 6.15482 10.1542 5.99997 10C5.84513 9.84591 5.21896 9.00005 4.99997 9.00005ZM12 9.00005C11.7977 9.00008 11.1511 9.86627 11 10C10.8488 10.1338 11.0236 9.80012 11 10V11C11.0002 11.2095 10.8555 11.8477 11 12C11.1444 12.1524 11.7899 11.9878 12 12C11.8386 12.1345 12.2101 12.0123 12 12C12.1614 11.8656 12.9751 11.2081 13 11V10C13 9.78206 12.1548 10.1542 12 10C11.8451 9.84591 12.219 9.00005 12 9.00005ZM4.99997 6.00005C4.79773 6.00008 5.1511 5.86628 4.99997 6.00005C4.84884 6.13382 4.02363 6.80012 3.99997 7.00005V8.00005C4.00021 8.20954 4.8555 7.84772 4.99997 8.00005C4.78988 7.98777 5.14444 8.15238 4.99997 8.00005C5.21006 8.01233 5.83859 8.13451 5.99997 8.00005C5.97512 8.20807 6.16136 7.86559 5.99997 8.00005V7.00005C5.99997 6.78206 6.15482 6.15419 5.99997 6.00005C5.84513 5.84591 5.21896 6.00005 4.99997 6.00005ZM8.99997 6.00005C8.79774 6.00008 8.1511 5.86628 7.99997 6.00005C7.84884 6.13382 8.02363 6.80012 7.99997 7.00005V8.00005C7.8555 7.84772 8.00021 8.20954 7.99997 8.00005C7.78988 7.98777 8.14444 8.15238 7.99997 8.00005C8.21006 8.01233 8.83859 8.13451 8.99997 8.00005C8.97512 8.20807 9.16136 7.86559 8.99997 8.00005V7.00005C8.99997 6.78206 9.15482 6.15419 8.99997 6.00005C9.21896 6.00005 8.84513 5.84591 8.99997 6.00005ZM12 6.00005C11.781 6.00005 11.1548 5.84591 11 6.00005C10.8451 6.15419 11 6.78206 11 7.00005V8.00005C10.8451 7.84591 11 8.21804 11 8.00005C11.1548 8.15419 11.781 9.00005 12 9.00005C12.219 9.00005 11.8451 8.15419 12 8.00005C12.1548 7.84591 13 8.21804 13 8.00005V7.00005C13 6.78206 12.1548 6.15419 12 6.00005C12.219 6.00005 11.8451 5.84591 12 6.00005ZM13 3.00005H3.99997V4.00005H13V3.00005Z" fill="white"/>
</svg>
