<svg width="20" height="20" viewBox="0 0 20 20" fill="none" xmlns="http://www.w3.org/2000/svg">
<path d="M10.5 2C7.25 2 3.5 2.05263 3.5 5V13C3.5 13.7817 3.96669 14.4473 4.5 15C5.03331 15.5527 5.74579 16 6.5 16L5.5 18H6.5L8.5 16H11.5L13.5 18H14.5L13.5 16C14.2542 16 14.9667 15.5527 15.5 15C16.0333 14.4473 16.5 13.7817 16.5 13V5C16.5 2.05263 14.0912 2 10.5 2ZM6.5 15C6.17677 15 5.72856 14.2369 5.5 14C5.27144 13.7631 5.5 13.335 5.5 13C5.5 12.665 5.27144 12.2369 5.5 12C5.72856 11.7631 6.17677 12 6.5 12C6.82323 12 7.27144 11.7631 7.5 12C7.72856 12.2369 7.5 12.665 7.5 13C7.5 13.335 7.72856 13.7631 7.5 14C7.27144 14.2369 6.82323 15 6.5 15ZM9.5 9H5.5V5H9.5V9ZM10.5 9V5H14.5V9H10.5ZM13.5 15C13.1768 15 12.7286 14.2369 12.5 14C12.2714 13.7631 12.5 13.335 12.5 13C12.5 12.665 12.2714 12.2369 12.5 12C12.7286 11.7631 13.1768 12 13.5 12C13.8232 12 14.2714 11.7631 14.5 12C14.7286 12.2369 14.5 12.665 14.5 13C14.5 13.335 14.7286 13.7631 14.5 14C14.2714 14.2369 13.8232 15 13.5 15Z" fill="#797979"/>
</svg>
